<?xml version="1.0" encoding="utf-8"?>
<!-- Generator: Adobe Illustrator 27.6.1, SVG Export Plug-In . SVG Version: 6.00 Build 0)  -->
<svg version="1.1" id="Layer_1" xmlns="http://www.w3.org/2000/svg" xmlns:xlink="http://www.w3.org/1999/xlink" x="0px" y="0px"
	 viewBox="0 0 666.7 666.7" style="enable-background:new 0 0 666.7 666.7;" xml:space="preserve">
<style type="text/css">
	.st0{fill:#333333;}
</style>
<path class="st0" d="M666.7,333.3c0,184.1-149.2,333.3-333.3,333.3C149.2,666.7,0,517.4,0,333.3C0,149.2,149.2,0,333.3,0
	S666.7,149.2,666.7,333.3L666.7,333.3z M488.5,257.3H365.3c-7.4,0-13.3-6-13.3-13.3c0,0,0,0,0,0V121.9H192.7
	c-7.4,0-13.3,6-13.3,13.3v394.4c0,7.3,6,13.3,13.3,13.3h282.4c7.4,0,13.3-6,13.3-13.3V257.3z M253.3,191.6
	c-18.4,0-33.4,14.9-33.4,33.3c0,18.4,14.9,33.4,33.3,33.4c18.4,0,33.4-14.9,33.4-33.3c0,0,0,0,0,0
	C286.6,206.5,271.7,191.6,253.3,191.6z M440.6,304.5H221.1v33.3h219.5L440.6,304.5z M440.6,375.6H221.1V409h219.5L440.6,375.6z
	 M440.6,446.8H221.1v33.3h219.5L440.6,446.8z M385.4,223.9h102.4L385.5,122.2L385.4,223.9z"/>
</svg>
